<?xml version="1.0" encoding="UTF-8" standalone="no"?>
<!DOCTYPE svg PUBLIC "-//W3C//DTD SVG 1.1//EN"
 "http://www.w3.org/Graphics/SVG/1.1/DTD/svg11.dtd">
<!-- Generated by graphviz version 2.40.1 (20161225.0304)
 -->
<!-- Title: storage Pages: 1 -->
<svg width="1388pt" height="799pt"
 viewBox="0.00 0.00 1388.00 798.50" xmlns="http://www.w3.org/2000/svg" xmlns:xlink="http://www.w3.org/1999/xlink">
<g id="graph0" class="graph" transform="scale(1 1) rotate(0) translate(4 794.5)">
<title>storage</title>
<polygon fill="#ffffff" stroke="transparent" points="-4,4 -4,-794.5 1384,-794.5 1384,4 -4,4"/>
<text text-anchor="start" x="334.5" y="-754.5" font-family="Times,serif" font-size="40.00" fill="#000000"> Resources on Linux 5.4.143&#45;1&#45;pve </text>
<text text-anchor="start" x="373.5" y="-710.5" font-family="Times,serif" font-size="40.00" fill="#000000"> collected at 2021&#45;12&#45;05 16:26 </text>
<g id="clust4" class="cluster">
<title>cluster_/dev/sdb</title>
<polygon fill="none" stroke="#000000" stroke-dasharray="1,5" points="289,-323 289,-630 432,-630 432,-323 289,-323"/>
<text text-anchor="middle" x="360.5" y="-614.8" font-family="Times,serif" font-size="14.00" fill="#000000">partitions</text>
</g>
<g id="clust5" class="cluster">
<title>cluster_/dev/sda</title>
<polygon fill="none" stroke="#000000" stroke-dasharray="1,5" points="289.5,-8 289.5,-315 431.5,-315 431.5,-8 289.5,-8"/>
<text text-anchor="middle" x="360.5" y="-299.8" font-family="Times,serif" font-size="14.00" fill="#000000">partitions</text>
</g>
<g id="clust6" class="cluster">
<title>cluster_mounts</title>
<polygon fill="none" stroke="#000000" stroke-dasharray="1,5" points="949,-251 949,-416 1380,-416 1380,-251 949,-251"/>
<text text-anchor="middle" x="1164.5" y="-380" font-family="Times,serif" font-size="40.00" fill="#000000">Mounted filesystems</text>
</g>
<!-- /dev/sdb5 -->
<g id="node1" class="node">
<title>/dev/sdb5</title>
<path fill="none" stroke="#000000" d="M424,-401.5C424,-405.3625 395.5383,-408.5 360.5,-408.5 325.4617,-408.5 297,-405.3625 297,-401.5 297,-401.5 297,-338.5 297,-338.5 297,-334.6375 325.4617,-331.5 360.5,-331.5 395.5383,-331.5 424,-334.6375 424,-338.5 424,-338.5 424,-401.5 424,-401.5"/>
<path fill="none" stroke="#000000" d="M424,-401.5C424,-397.6375 395.5383,-394.5 360.5,-394.5 325.4617,-394.5 297,-397.6375 297,-401.5"/>
<text text-anchor="start" x="305" y="-379" font-family="Times,serif" font-size="20.00" fill="#000000">/dev/sdb5 </text>
<text text-anchor="start" x="411" y="-379" font-family="Times,serif" font-size="14.00" fill="#000000"> </text>
<text text-anchor="start" x="355.5" y="-363.8" font-family="Times,serif" font-size="14.00" fill="#000000"> &#160;</text>
<text text-anchor="start" x="332" y="-349.8" font-family="Times,serif" font-size="14.00" fill="#000000"> 838.4G</text>
</g>
<!-- /dev/md127 -->
<g id="node8" class="node">
<title>/dev/md127</title>
<polygon fill="none" stroke="#000000" points="460,-242 460,-298 608,-298 608,-242 460,-242"/>
<text text-anchor="start" x="468" y="-279" font-family="Times,serif" font-size="20.00" fill="#000000">/dev/md127 </text>
<text text-anchor="start" x="595" y="-279" font-family="Times,serif" font-size="14.00" fill="#000000"> </text>
<text text-anchor="start" x="529" y="-263.8" font-family="Times,serif" font-size="14.00" fill="#000000"> &#160;</text>
<text text-anchor="start" x="505.5" y="-249.8" font-family="Times,serif" font-size="14.00" fill="#000000"> 838.3G</text>
</g>
<!-- /dev/sdb5&#45;&gt;/dev/md127 -->
<g id="edge2" class="edge">
<title>/dev/sdb5&#45;&gt;/dev/md127</title>
<path fill="none" stroke="#000000" d="M416.8383,-333.7682C430.8075,-325.098 445.8358,-316.0315 460,-308 462.9798,-306.3104 466.0427,-304.6076 469.1476,-302.9087"/>
<polygon fill="#000000" stroke="#000000" points="470.8371,-305.9742 477.9755,-298.1451 467.5129,-299.8139 470.8371,-305.9742"/>
</g>
<!-- /dev/mapper/vzdata&#45;lvvz -->
<g id="node2" class="node">
<title>/dev/mapper/vzdata&#45;lvvz</title>
<polygon fill="none" stroke="#000000" points="644,-242 644,-298 921,-298 921,-242 644,-242"/>
<text text-anchor="start" x="652" y="-279" font-family="Times,serif" font-size="20.00" fill="#000000">/dev/mapper/vzdata&#45;lvvz </text>
<text text-anchor="start" x="908" y="-279" font-family="Times,serif" font-size="14.00" fill="#000000"> </text>
<text text-anchor="start" x="777.5" y="-263.8" font-family="Times,serif" font-size="14.00" fill="#000000"> &#160;</text>
<text text-anchor="start" x="754" y="-249.8" font-family="Times,serif" font-size="14.00" fill="#000000"> 838.3G</text>
</g>
<!-- /var/lib/vz -->
<g id="node15" class="node">
<title>/var/lib/vz</title>
<polygon fill="none" stroke="#000000" points="1088,-260 1088,-298 1240,-298 1240,-260 1088,-260"/>
<text text-anchor="start" x="1128.5" y="-282.8" font-family="Times,serif" font-size="14.00" fill="#000000">/var/lib/vz</text>
<text text-anchor="start" x="1096" y="-267.8" font-family="Times,serif" font-size="14.00" fill="#000000">824.1G , 14% used</text>
</g>
<!-- /dev/mapper/vzdata&#45;lvvz&#45;&gt;/var/lib/vz -->
<g id="edge14" class="edge">
<title>/dev/mapper/vzdata&#45;lvvz&#45;&gt;/var/lib/vz</title>
<path fill="none" stroke="#000000" d="M921.0395,-273.2683C973.353,-274.5024 1031.3427,-275.8705 1077.5452,-276.9604"/>
<polygon fill="#000000" stroke="#000000" points="1077.7385,-280.4659 1087.8183,-277.2028 1077.9037,-273.4678 1077.7385,-280.4659"/>
</g>
<!-- /dev/sdb1 -->
<g id="node3" class="node">
<title>/dev/sdb1</title>
<path fill="none" stroke="#000000" d="M424,-591.5C424,-595.3625 395.5383,-598.5 360.5,-598.5 325.4617,-598.5 297,-595.3625 297,-591.5 297,-591.5 297,-528.5 297,-528.5 297,-524.6375 325.4617,-521.5 360.5,-521.5 395.5383,-521.5 424,-524.6375 424,-528.5 424,-528.5 424,-591.5 424,-591.5"/>
<path fill="none" stroke="#000000" d="M424,-591.5C424,-587.6375 395.5383,-584.5 360.5,-584.5 325.4617,-584.5 297,-587.6375 297,-591.5"/>
<text text-anchor="start" x="305" y="-569" font-family="Times,serif" font-size="20.00" fill="#000000">/dev/sdb1 </text>
<text text-anchor="start" x="411" y="-569" font-family="Times,serif" font-size="14.00" fill="#000000"> </text>
<text text-anchor="start" x="355.5" y="-553.8" font-family="Times,serif" font-size="14.00" fill="#000000"> &#160;</text>
<text text-anchor="start" x="336.5" y="-539.8" font-family="Times,serif" font-size="14.00" fill="#000000"> 93.1G</text>
</g>
<!-- /dev/md0 -->
<g id="node9" class="node">
<title>/dev/md0</title>
<polygon fill="none" stroke="#000000" points="472.5,-317 472.5,-373 595.5,-373 595.5,-317 472.5,-317"/>
<text text-anchor="start" x="480.5" y="-354" font-family="Times,serif" font-size="20.00" fill="#000000">/dev/md0 </text>
<text text-anchor="start" x="582.5" y="-354" font-family="Times,serif" font-size="14.00" fill="#000000"> </text>
<text text-anchor="start" x="529" y="-338.8" font-family="Times,serif" font-size="14.00" fill="#000000"> &#160;</text>
<text text-anchor="start" x="510" y="-324.8" font-family="Times,serif" font-size="14.00" fill="#000000"> 93.1G</text>
</g>
<!-- /dev/sdb1&#45;&gt;/dev/md0 -->
<g id="edge1" class="edge">
<title>/dev/sdb1&#45;&gt;/dev/md0</title>
<path fill="none" stroke="#000000" d="M419.9294,-524.0539C424.2043,-520.5443 428.287,-516.8486 432,-513 469.6234,-474.0024 499.8203,-418.7375 517.3262,-382.3954"/>
<polygon fill="#000000" stroke="#000000" points="520.5965,-383.6671 521.7114,-373.1311 514.2695,-380.6722 520.5965,-383.6671"/>
</g>
<!-- /dev/sdb2 -->
<g id="node4" class="node">
<title>/dev/sdb2</title>
<path fill="none" stroke="#000000" d="M424,-496.5C424,-500.3625 395.5383,-503.5 360.5,-503.5 325.4617,-503.5 297,-500.3625 297,-496.5 297,-496.5 297,-433.5 297,-433.5 297,-429.6375 325.4617,-426.5 360.5,-426.5 395.5383,-426.5 424,-429.6375 424,-433.5 424,-433.5 424,-496.5 424,-496.5"/>
<path fill="none" stroke="#000000" d="M424,-496.5C424,-492.6375 395.5383,-489.5 360.5,-489.5 325.4617,-489.5 297,-492.6375 297,-496.5"/>
<text text-anchor="start" x="305" y="-474" font-family="Times,serif" font-size="20.00" fill="#000000">/dev/sdb2 </text>
<text text-anchor="start" x="411" y="-474" font-family="Times,serif" font-size="14.00" fill="#000000"> </text>
<text text-anchor="start" x="355.5" y="-458.8" font-family="Times,serif" font-size="14.00" fill="#000000"> &#160;</text>
<text text-anchor="start" x="348" y="-444.8" font-family="Times,serif" font-size="14.00" fill="#000000"> 1K</text>
</g>
<!-- /dev/sdb -->
<g id="node5" class="node">
<title>/dev/sdb</title>
<path fill="none" stroke="#000000" d="M232,-496.5C232,-500.3625 186.5061,-503.5 130.5,-503.5 74.4939,-503.5 29,-500.3625 29,-496.5 29,-496.5 29,-433.5 29,-433.5 29,-429.6375 74.4939,-426.5 130.5,-426.5 186.5061,-426.5 232,-429.6375 232,-433.5 232,-433.5 232,-496.5 232,-496.5"/>
<path fill="none" stroke="#000000" d="M232,-496.5C232,-492.6375 186.5061,-489.5 130.5,-489.5 74.4939,-489.5 29,-492.6375 29,-496.5"/>
<text text-anchor="start" x="81.5" y="-474" font-family="Times,serif" font-size="20.00" fill="#000000">/dev/sdb </text>
<text text-anchor="start" x="174.5" y="-474" font-family="Times,serif" font-size="14.00" fill="#000000"> </text>
<text text-anchor="start" x="37" y="-458.8" font-family="Times,serif" font-size="14.00" fill="#000000"> TOSHIBA_DT01ACA100 </text>
<text text-anchor="start" x="102" y="-444.8" font-family="Times,serif" font-size="14.00" fill="#000000"> 931.5G</text>
</g>
<!-- /dev/sdb&#45;&gt;/dev/sdb5 -->
<g id="edge7" class="edge">
<title>/dev/sdb&#45;&gt;/dev/sdb5</title>
<path fill="none" stroke="#000000" d="M218.4376,-428.6779C241.2963,-419.2363 265.6673,-409.17 287.6527,-400.0891"/>
<polygon fill="#000000" stroke="#000000" points="289.0111,-403.3149 296.9176,-396.2623 286.3388,-396.845 289.0111,-403.3149"/>
</g>
<!-- /dev/sdb&#45;&gt;/dev/sdb1 -->
<g id="edge9" class="edge">
<title>/dev/sdb&#45;&gt;/dev/sdb1</title>
<path fill="none" stroke="#000000" d="M218.4376,-501.3221C241.2963,-510.7637 265.6673,-520.83 287.6527,-529.9109"/>
<polygon fill="#000000" stroke="#000000" points="286.3388,-533.155 296.9176,-533.7377 289.0111,-526.6851 286.3388,-533.155"/>
</g>
<!-- /dev/sdb&#45;&gt;/dev/sdb2 -->
<g id="edge12" class="edge">
<title>/dev/sdb&#45;&gt;/dev/sdb2</title>
<path fill="none" stroke="#000000" d="M232.0509,-465C250.46,-465 269.3352,-465 286.7547,-465"/>
<polygon fill="#000000" stroke="#000000" points="286.8282,-468.5001 296.8282,-465 286.8282,-461.5001 286.8282,-468.5001"/>
</g>
<!-- /dev/sdc1 -->
<g id="node6" class="node">
<title>/dev/sdc1</title>
<polygon fill="none" stroke="#000000" points="298,-638 298,-694 423,-694 423,-638 298,-638"/>
<text text-anchor="start" x="306" y="-675" font-family="Times,serif" font-size="20.00" fill="#000000">/dev/sdc1 </text>
<text text-anchor="start" x="410" y="-675" font-family="Times,serif" font-size="14.00" fill="#000000"> </text>
<text text-anchor="start" x="355.5" y="-659.8" font-family="Times,serif" font-size="14.00" fill="#000000"> &#160;</text>
<text text-anchor="start" x="332" y="-645.8" font-family="Times,serif" font-size="14.00" fill="#000000"> 232.9G</text>
</g>
<!-- /dev/sdc -->
<g id="node7" class="node">
<title>/dev/sdc</title>
<polygon fill="none" stroke="#000000" points="0,-638 0,-694 261,-694 261,-638 0,-638"/>
<text text-anchor="start" x="82.5" y="-675" font-family="Times,serif" font-size="20.00" fill="#000000">/dev/sdc </text>
<text text-anchor="start" x="173.5" y="-675" font-family="Times,serif" font-size="14.00" fill="#000000"> </text>
<text text-anchor="start" x="8" y="-659.8" font-family="Times,serif" font-size="14.00" fill="#000000"> Samsung_SSD_870_EVO_250GB </text>
<text text-anchor="start" x="102" y="-645.8" font-family="Times,serif" font-size="14.00" fill="#000000"> 232.9G</text>
</g>
<!-- /dev/sdc&#45;&gt;/dev/sdc1 -->
<g id="edge10" class="edge">
<title>/dev/sdc&#45;&gt;/dev/sdc1</title>
<path fill="none" stroke="#000000" d="M261.2905,-666C270.2782,-666 279.1347,-666 287.6348,-666"/>
<polygon fill="#000000" stroke="#000000" points="287.8112,-669.5001 297.8112,-666 287.8111,-662.5001 287.8112,-669.5001"/>
</g>
<!-- /dev/md127&#45;&gt;/dev/mapper/vzdata&#45;lvvz -->
<g id="edge5" class="edge">
<title>/dev/md127&#45;&gt;/dev/mapper/vzdata&#45;lvvz</title>
<path fill="none" stroke="#000000" d="M608.2216,-270C616.3423,-270 624.8052,-270 633.4346,-270"/>
<polygon fill="#000000" stroke="#000000" points="633.6308,-273.5001 643.6308,-270 633.6307,-266.5001 633.6308,-273.5001"/>
</g>
<!-- /dev/mapper/sys&#45;prox -->
<g id="node11" class="node">
<title>/dev/mapper/sys&#45;prox</title>
<polygon fill="none" stroke="#000000" points="658.5,-317 658.5,-373 906.5,-373 906.5,-317 658.5,-317"/>
<text text-anchor="start" x="666.5" y="-354" font-family="Times,serif" font-size="20.00" fill="#000000">/dev/mapper/sys&#45;prox </text>
<text text-anchor="start" x="893.5" y="-354" font-family="Times,serif" font-size="14.00" fill="#000000"> </text>
<text text-anchor="start" x="777.5" y="-338.8" font-family="Times,serif" font-size="14.00" fill="#000000"> &#160;</text>
<text text-anchor="start" x="758.5" y="-324.8" font-family="Times,serif" font-size="14.00" fill="#000000"> 93.1G</text>
</g>
<!-- /dev/md0&#45;&gt;/dev/mapper/sys&#45;prox -->
<g id="edge4" class="edge">
<title>/dev/md0&#45;&gt;/dev/mapper/sys&#45;prox</title>
<path fill="none" stroke="#000000" d="M595.7463,-345C611.8769,-345 629.908,-345 648.2316,-345"/>
<polygon fill="#000000" stroke="#000000" points="648.4313,-348.5001 658.4313,-345 648.4313,-341.5001 648.4313,-348.5001"/>
</g>
<!-- /dev/sda5 -->
<g id="node10" class="node">
<title>/dev/sda5</title>
<path fill="none" stroke="#000000" d="M423.5,-86.5C423.5,-90.3625 395.2624,-93.5 360.5,-93.5 325.7376,-93.5 297.5,-90.3625 297.5,-86.5 297.5,-86.5 297.5,-23.5 297.5,-23.5 297.5,-19.6375 325.7376,-16.5 360.5,-16.5 395.2624,-16.5 423.5,-19.6375 423.5,-23.5 423.5,-23.5 423.5,-86.5 423.5,-86.5"/>
<path fill="none" stroke="#000000" d="M423.5,-86.5C423.5,-82.6375 395.2624,-79.5 360.5,-79.5 325.7376,-79.5 297.5,-82.6375 297.5,-86.5"/>
<text text-anchor="start" x="305.5" y="-64" font-family="Times,serif" font-size="20.00" fill="#000000">/dev/sda5 </text>
<text text-anchor="start" x="410.5" y="-64" font-family="Times,serif" font-size="14.00" fill="#000000"> </text>
<text text-anchor="start" x="355.5" y="-48.8" font-family="Times,serif" font-size="14.00" fill="#000000"> &#160;</text>
<text text-anchor="start" x="332" y="-34.8" font-family="Times,serif" font-size="14.00" fill="#000000"> 838.4G</text>
</g>
<!-- /dev/sda5&#45;&gt;/dev/md127 -->
<g id="edge8" class="edge">
<title>/dev/sda5&#45;&gt;/dev/md127</title>
<path fill="none" stroke="#000000" d="M419.9294,-90.9461C424.2043,-94.4557 428.287,-98.1514 432,-102 469.6234,-140.9976 499.8203,-196.2625 517.3262,-232.6046"/>
<polygon fill="#000000" stroke="#000000" points="514.2695,-234.3278 521.7114,-241.8689 520.5965,-231.3329 514.2695,-234.3278"/>
</g>
<!-- / -->
<g id="node16" class="node">
<title>/</title>
<polygon fill="none" stroke="#000000" points="1097,-317 1097,-355 1231,-355 1231,-317 1097,-317"/>
<text text-anchor="start" x="1161.5" y="-339.8" font-family="Times,serif" font-size="14.00" fill="#000000">/</text>
<text text-anchor="start" x="1105" y="-324.8" font-family="Times,serif" font-size="14.00" fill="#000000">91.1G , 4% used</text>
</g>
<!-- /dev/mapper/sys&#45;prox&#45;&gt;/ -->
<g id="edge15" class="edge">
<title>/dev/mapper/sys&#45;prox&#45;&gt;/</title>
<path fill="none" stroke="#000000" d="M906.6257,-342.0717C965.9638,-340.6719 1035.1393,-339.04 1086.8218,-337.8207"/>
<polygon fill="#000000" stroke="#000000" points="1087.0023,-341.3175 1096.9169,-337.5826 1086.8371,-334.3195 1087.0023,-341.3175"/>
</g>
<!-- /dev/sda1 -->
<g id="node12" class="node">
<title>/dev/sda1</title>
<path fill="none" stroke="#000000" d="M423.5,-276.5C423.5,-280.3625 395.2624,-283.5 360.5,-283.5 325.7376,-283.5 297.5,-280.3625 297.5,-276.5 297.5,-276.5 297.5,-213.5 297.5,-213.5 297.5,-209.6375 325.7376,-206.5 360.5,-206.5 395.2624,-206.5 423.5,-209.6375 423.5,-213.5 423.5,-213.5 423.5,-276.5 423.5,-276.5"/>
<path fill="none" stroke="#000000" d="M423.5,-276.5C423.5,-272.6375 395.2624,-269.5 360.5,-269.5 325.7376,-269.5 297.5,-272.6375 297.5,-276.5"/>
<text text-anchor="start" x="305.5" y="-254" font-family="Times,serif" font-size="20.00" fill="#000000">/dev/sda1 </text>
<text text-anchor="start" x="410.5" y="-254" font-family="Times,serif" font-size="14.00" fill="#000000"> </text>
<text text-anchor="start" x="355.5" y="-238.8" font-family="Times,serif" font-size="14.00" fill="#000000"> &#160;</text>
<text text-anchor="start" x="336.5" y="-224.8" font-family="Times,serif" font-size="14.00" fill="#000000"> 93.1G</text>
</g>
<!-- /dev/sda1&#45;&gt;/dev/md0 -->
<g id="edge3" class="edge">
<title>/dev/sda1&#45;&gt;/dev/md0</title>
<path fill="none" stroke="#000000" d="M415.681,-281.3243C429.9461,-290.3299 445.4012,-299.7563 460,-308 462.3803,-309.3441 464.8156,-310.6929 467.2847,-312.0381"/>
<polygon fill="#000000" stroke="#000000" points="465.8657,-315.2484 476.3343,-316.8795 469.1678,-309.0761 465.8657,-315.2484"/>
</g>
<!-- /dev/sda2 -->
<g id="node13" class="node">
<title>/dev/sda2</title>
<path fill="none" stroke="#000000" d="M423.5,-181.5C423.5,-185.3625 395.2624,-188.5 360.5,-188.5 325.7376,-188.5 297.5,-185.3625 297.5,-181.5 297.5,-181.5 297.5,-118.5 297.5,-118.5 297.5,-114.6375 325.7376,-111.5 360.5,-111.5 395.2624,-111.5 423.5,-114.6375 423.5,-118.5 423.5,-118.5 423.5,-181.5 423.5,-181.5"/>
<path fill="none" stroke="#000000" d="M423.5,-181.5C423.5,-177.6375 395.2624,-174.5 360.5,-174.5 325.7376,-174.5 297.5,-177.6375 297.5,-181.5"/>
<text text-anchor="start" x="305.5" y="-159" font-family="Times,serif" font-size="20.00" fill="#000000">/dev/sda2 </text>
<text text-anchor="start" x="410.5" y="-159" font-family="Times,serif" font-size="14.00" fill="#000000"> </text>
<text text-anchor="start" x="355.5" y="-143.8" font-family="Times,serif" font-size="14.00" fill="#000000"> &#160;</text>
<text text-anchor="start" x="348" y="-129.8" font-family="Times,serif" font-size="14.00" fill="#000000"> 1K</text>
</g>
<!-- /dev/sda -->
<g id="node14" class="node">
<title>/dev/sda</title>
<path fill="none" stroke="#000000" d="M232,-181.5C232,-185.3625 186.5061,-188.5 130.5,-188.5 74.4939,-188.5 29,-185.3625 29,-181.5 29,-181.5 29,-118.5 29,-118.5 29,-114.6375 74.4939,-111.5 130.5,-111.5 186.5061,-111.5 232,-114.6375 232,-118.5 232,-118.5 232,-181.5 232,-181.5"/>
<path fill="none" stroke="#000000" d="M232,-181.5C232,-177.6375 186.5061,-174.5 130.5,-174.5 74.4939,-174.5 29,-177.6375 29,-181.5"/>
<text text-anchor="start" x="82" y="-159" font-family="Times,serif" font-size="20.00" fill="#000000">/dev/sda </text>
<text text-anchor="start" x="174" y="-159" font-family="Times,serif" font-size="14.00" fill="#000000"> </text>
<text text-anchor="start" x="37" y="-143.8" font-family="Times,serif" font-size="14.00" fill="#000000"> TOSHIBA_DT01ACA100 </text>
<text text-anchor="start" x="102" y="-129.8" font-family="Times,serif" font-size="14.00" fill="#000000"> 931.5G</text>
</g>
<!-- /dev/sda&#45;&gt;/dev/sda5 -->
<g id="edge6" class="edge">
<title>/dev/sda&#45;&gt;/dev/sda5</title>
<path fill="none" stroke="#000000" d="M218.4376,-113.6779C241.4072,-104.1905 265.9039,-94.0723 287.9727,-84.9569"/>
<polygon fill="#000000" stroke="#000000" points="289.3641,-88.1691 297.2706,-81.1165 286.6918,-81.6993 289.3641,-88.1691"/>
</g>
<!-- /dev/sda&#45;&gt;/dev/sda1 -->
<g id="edge11" class="edge">
<title>/dev/sda&#45;&gt;/dev/sda1</title>
<path fill="none" stroke="#000000" d="M218.4376,-186.3221C241.4072,-195.8095 265.9039,-205.9277 287.9727,-215.0431"/>
<polygon fill="#000000" stroke="#000000" points="286.6918,-218.3007 297.2706,-218.8835 289.3641,-211.8309 286.6918,-218.3007"/>
</g>
<!-- /dev/sda&#45;&gt;/dev/sda2 -->
<g id="edge13" class="edge">
<title>/dev/sda&#45;&gt;/dev/sda2</title>
<path fill="none" stroke="#000000" d="M232.0509,-150C250.6612,-150 269.7479,-150 287.3253,-150"/>
<polygon fill="#000000" stroke="#000000" points="287.4852,-153.5001 297.4852,-150 287.4851,-146.5001 287.4852,-153.5001"/>
</g>
</g>
</svg>
